<?xml version="1.0" standalone="no"?>
<!DOCTYPE svg PUBLIC "-//W3C//DTD SVG 1.1//EN" "http://www.w3.org/Graphics/SVG/1.1/DTD/svg11.dtd">
<svg xmlns="http://www.w3.org/2000/svg"><defs><font id="flaticon" horiz-adv-x="512"><font-face units-per-em="512" ascent="448" descent="-64" x-height="240" cap-height="480"/><missing-glyph horiz-adv-x="512"/><glyph unicode="&#xE000;" glyph-name="add11" horiz-adv-x="512" d="M255.96338149049 448C114.59762551852 448 0 333.38406522672 0 192c0 -141.38406522672 114.59762551852 -255.98169074524 255.96338149049 -255.98169074524 c141.43899299099 0 256.01830925476 114.61593477328 256.01830925476 255.98169074524C511.98169074524 333.38406522672 397.40237448148 448 255.96338149049 448zM386.36189386354 153.97167787155h-90.429409240452v-92.315262480332h-78.711486196538v92.315262480332H125.63810613646V232.68316406809h91.564583035331 v89.715348304964h78.711486196538v-89.715348304964h90.429409240452V153.97167787155z"/><glyph unicode="&#xE001;" glyph-name="add70" horiz-adv-x="569" d="M352.05688888889 65.479111111111c-70.866488888889 25.5488 -93.513955555556 47.115377777778 -93.513955555556 93.269333333333c0 27.710577777778 21.634844444444 18.659555555556 31.135288888889 69.404444444444c3.9424 21.048888888889 23.057066666667 0.34133333333333 26.709333333333 48.395377777778 c0 19.1488 -10.433422222222 23.9104 -10.433422222222 23.9104s5.3020444444444 28.342044444444 7.3784888888889 50.153244444444C315.90968888889 377.78773333333 297.46631111111 448 199.11111111111 448S82.312533333333 377.78773333333 84.8896 350.61191111111 c2.0764444444444 -21.8112 7.3784888888889 -50.153244444444 7.3784888888889 -50.153244444444s-10.433422222222 -4.7616 -10.433422222222 -23.9104c3.6579555555556 -48.054044444444 22.766933333333 -27.346488888889 26.697955555556 -48.395377777778 c9.5118222222222 -50.7392 31.146666666667 -41.693866666667 31.146666666667 -69.404444444444c0 -46.153955555556 -22.641777777778 -67.720533333333 -93.513955555556 -93.269333333333C37.632 62.407111111111 17.288533333333 57.622755555556 0 50.158933333333V-64h455.11111111111 c0 0 0 42.075022222222 0 59.881244444444C455.11111111111 13.704533333333 423.14524444444 39.844977777778 352.05688888889 65.479111111111zM483.55555555556 220.44444444444V305.77777777778H426.66666666667v-85.333333333333H341.33333333333v-56.888888888889h85.333333333333v-85.333333333333h56.888888888889V163.55555555556h85.333333333333V220.44444444444H483.55555555556z"/><glyph unicode="&#xE002;" glyph-name="add98" horiz-adv-x="512" d="M416 179.808C405.788 182.528 395.068 184 384 184c-1.34 0 -2.668 -0.06 -4 -0.1C314.04 181.804 261.104 128.22 260.052 62 C260.04 61.332 260 60.672 260 60c0 -13.26 2.104 -26.02 5.956 -38C282.004 -27.888 328.776 -64 384 -64c68.484 0 124 55.516 124 124 C508 117.416 468.968 165.696 416 179.808zM384 -22c-45.288 0 -82 36.712 -82 82S338.712 142 384 142s82 -36.712 82 -82 S429.288 -22 384 -22zM396 116L368 116L368 72L324 72L324 44L368 44L368 0L396 0L396 44L440 44L440 72L396 72ZM104 354c7.72 0 14 6.28 14 14v34v32C118 441.72 111.72 448 104 448h-12c-7.72 0 -14 -6.28 -14 -14v-32V368 c0 -7.72 6.28 -14 14 -14H104zM324 354c7.72 0 14 6.28 14 14v34v32C338 441.72 331.72 448 324 448h-12c-7.72 0 -14 -6.28 -14 -14v-32V368 c0 -7.72 6.28 -14 14 -14H324zM228 34c-1.952 9.704 -2.988 19.732 -2.988 30c0 3.364 0.148 6.692 0.364 10H60c-13.256 0 -24 10.744 -24 24v192h344v-74.212 C382.648 215.924 385.316 216 388 216c9.568 0 18.916 -0.928 28 -2.628V370c0 17.672 -14.328 32 -32 32h-26V368c0 -18.748 -15.252 -34 -34 -34h-12 c-18.748 0 -34 15.252 -34 34v34h-140V368c0 -18.748 -15.252 -34 -34 -34h-12c-18.748 0 -34 15.252 -34 34v34H32c-17.672 0 -32 -14.328 -32 -32v-304 c0 -17.672 14.328 -32 32 -32H228zM84 230C84 247.463973 96.536027 260 112.752 260C127.463973 260 140 247.463973 140 230C140 216.536027 127.463973 204 112.752 204C96.536027 204 84 216.536027 84 230ZM180 230C180 247.463973 192.536027 260 208 260C223.463973 260 236 247.463973 236 230C236 216.536027 223.463973 204 208 204C192.536027 204 180 216.536027 180 230ZM272 230C272 247.463973 284.536027 260 303.248 260C315.463973 260 328 247.463973 328 230C328 216.536027 315.463973 204 303.248 204C284.536027 204 272 216.536027 272 230ZM180 134C180 151.463973 192.536027 164 208 164C223.463973 164 236 151.463973 236 134C236 120.536027 223.463973 108 208 108C192.536027 108 180 120.536027 180 134ZM84 134C84 151.463973 96.536027 164 112.752 164C127.463973 164 140 151.463973 140 134C140 120.536027 127.463973 108 112.752 108C96.536027 108 84 120.536027 84 134Z"/><glyph unicode="&#xE003;" glyph-name="ascendant6" horiz-adv-x="512" d="M512 -32v-32H0V448h32v-480H512zM228.906 270.281l130.719 -32.656L404.875 313l41 -24.625L448 416L336.406 354.062l41 -24.625 l-33.031 -55.063l-125.281 31.344L84.688 171.312l22.625 -22.625L228.906 270.281zM192 0h64V230.531l-17.281 4.313L192 188.125V0 zM96 114.75V0h64V156.125l-52.688 -52.688L96 114.75zM384 216v-216h64V249.781l-32.156 19.281L384 216zM352 0V206.531l-64 16 V0H352z"/><glyph unicode="&#xE004;" glyph-name="calendar68" horiz-adv-x="512" d="M64 368V432c0 8.844 7.156 16 16 16s16 -7.156 16 -16v-64c0 -8.844 -7.156 -16 -16 -16S64 359.156 64 368zM336 352 c8.844 0 16 7.156 16 16V432c0 8.844 -7.156 16 -16 16s-16 -7.156 -16 -16v-64C320 359.156 327.156 352 336 352zM512 64 c0 -70.688 -57.313 -128 -128 -128s-128 57.313 -128 128s57.313 128 128 128S512 134.687 512 64zM480 64c0 52.938 -43.063 96 -96 96 s-96 -43.063 -96 -96s43.063 -96 96 -96S480 11.062 480 64zM128 256H64v-64h64V256zM64 96h64v64H64V96zM160 192h64v64h-64V192zM160 96h64v64h-64V96zM32 67.187V288h352v-64h32V348.812C416 368.25 400.5 384 381.344 384H368v-16c0 -17.625 -14.344 -32 -32 -32 s-32 14.375 -32 32V384H112v-16c0 -17.625 -14.344 -32 -32 -32S48 350.375 48 368V384H34.672C15.516 384 0 368.25 0 348.812v-281.625 C0 47.812 15.516 32 34.672 32H224v32H34.672C33.219 64 32 65.5 32 67.187zM320 192v64h-64v-64H320zM432 64h-48v48 c0 8.844 -7.156 16 -16 16s-16 -7.156 -16 -16v-64c0 -8.844 7.156 -16 16 -16h64c8.844 0 16 7.156 16 16S440.844 64 432 64z"/><glyph unicode="&#xE005;" glyph-name="coins15" horiz-adv-x="512" d="M442.656 297.844v-0.031C446.031 304.937 448 312.375 448 320V352c0 53 -85.969 96 -192 96S64 405 64 352 c0 2.625 0.375 5.188 0.781 7.75C25.125 342.187 0 316.562 0 288v-32c0 -29.688 27 -56.219 69.344 -73.813l0 0 C65.969 175.062 64 167.625 64 160v-32c0 -11.25 4.063 -21.969 11.188 -32C68.063 85.969 64 75.25 64 64v-32c0 -53 85.969 -96 192 -96 s192 43 192 96v32c0 11.438 -4.219 22.344 -11.531 32.5c-0.063 -0.063 -0.125 -0.156 -0.188 -0.219 c5.375 7.625 9.594 15.563 10.938 23.969C486.875 137.844 512 163.437 512 192v32C512 253.687 485 280.25 442.656 297.844zM256 432 c103.719 0 176 -42.156 176 -80c0 -37.813 -72.281 -80 -176 -80S80 314.187 80 352C80 389.844 152.281 432 256 432zM16 288 c0 18.688 17.719 38.344 48 53.531V320c0 -53 85.969 -96 192 -96c15.844 0 31.156 1.063 45.875 2.875 C272.531 215.594 235.25 208 192 208C88.281 208 16 250.187 16 288zM432 64c0 -37.813 -72.281 -80 -176 -80S80 26.187 80 64 c0 6.281 2.688 12.656 6.469 18.969c-0.031 0.031 -0.094 0.094 -0.125 0.156C118.563 52.719 182.438 32 256 32 c73.656 0 137.219 20.875 169.375 51.344c-0.031 -0.031 -0.031 -0.031 -0.063 -0.063C429.25 76.875 432 70.406 432 64zM365.938 98.875C336.563 87.562 299.281 80 256 80c-103.719 0 -176 42.188 -176 80c0 5.438 1.875 10.938 4.719 16.375 c15.688 -5.281 33.031 -9.438 51.563 -12.219C160.156 124.719 233.344 96 320 96c15.906 0 31.281 1.063 46.063 2.906 C366.031 98.906 366 98.875 365.938 98.875zM320 144c-41.063 0 -76.875 6.75 -105.563 17.094 c90.219 5.313 161.469 41.531 168.781 87.156c21.781 9.656 39.219 21.688 50.438 35.375c-0.031 0 -0.031 0 -0.031 0 C472.375 267.875 496 245.375 496 224C496 186.187 423.719 144 320 144zM290.188 328.687c0 3.375 -2.688 5.969 -8.063 7.688 c-5.375 1.75 -17.344 4 -35.875 6.688c-16.656 2.344 -29.688 4.688 -39.063 7s-17 5.563 -22.844 9.688 c-5.844 4.188 -8.781 9.063 -8.781 14.563c0 7.25 5.25 13.813 15.688 19.625c10.438 5.781 26.875 9.313 49.313 10.625V416h30.313 v-11.438c33.875 -1.688 55.813 -9.5 65.781 -23.563l-41.75 -7c-8.156 9.625 -20.719 14.438 -37.781 14.438 c-8.563 0 -15.438 -1.063 -20.594 -3.25c-5.188 -2.125 -7.781 -4.75 -7.781 -7.813c0 -3.125 2.5 -5.5 7.5 -7.188 c4.969 -1.656 15.688 -3.688 32.063 -6.188c18 -2.688 32.125 -5.219 42.344 -7.625c10.25 -2.375 18.406 -5.688 24.531 -9.906 c6.094 -4.219 9.156 -9.156 9.156 -14.781c0 -8.688 -6.313 -15.875 -18.906 -21.656s-30.781 -9.188 -54.563 -10.219V285h-30.313v14.75 c-39.656 1.656 -64.188 11.125 -73.656 28.313l46.875 5c4.344 -10.813 18.719 -16.219 43.125 -16.219c11.406 0 19.844 1.156 25.219 3.469 S290.188 325.406 290.188 328.687z"/><glyph unicode="&#xE006;" glyph-name="diary1" horiz-adv-x="548" d="M201.20065501352 32.106020792871l2.0667961460832 2.0472980692334c0 0 82.63284968963 82.63284968963 156.70604364218 156.66704748848v191.47111466545c0 9.9635172702692 -8.0527057389847 17.977226855554 -17.977226855554 17.977226855554 L35.428005636163 400.44419056324c0 12.400776876499 18.581667237899 18.659659545299 18.581667237899 18.659659545299h305.96382192772c19.147111466545 0 18.581667237899 -16.904832628813 18.581667237899 -16.904832628813v-192.75798773754c9.8465288091702 9.8855249628699 19.342092235043 19.361590311893 28.35020373967 28.35020373967 V431.13416352489c0 13.453673026391 -16.865836475113 16.865836475113 -16.865836475113 16.865836475113H50.63650557904C0 448 0 401.06812902243 0 401.06812902243v-431.9603945314c0 -9.9245211165696 8.0332076621349 -18.035721086104 17.996724932404 -18.035721086104h153.25488403976 c3.6851365246201 14.85753455958 12.127803800602 38.586694085837 28.798659507217 78.323774705815L201.20065501352 32.106020792871zM88.462774667733 298.29376594691V333.40980235348h185.81667237899v-35.116036406565H88.462774667733zM406.90536577935 75.586732168019c-9.6125518869721 -9.5930538101222 -19.108115312845 -19.049621082296 -28.35020373967 -28.311207585971v-50.149053657794c0 0 -3.1781865265242 -11.698846109905 -18.581667237899 -11.698846109905v43.246734452949 c-28.272211432271 -28.252713355421 -52.235347880727 -52.254845957576 -65.182070909022 -65.201568985872l-11.893826878404 -12.420274953349h59.098670931871c9.9245211165696 0 17.977226855554 8.1111999695343 17.977226855554 18.035721086104l28.915647968316 0.019498076849842 c19.361590311893 0 18.016223009254 19.088617235995 18.016223009254 19.088617235995V75.586732168019zM483.68879241403 295.97349480178c-21.330896073727 -21.369892227427 -269.85338360181 -269.87288167866 -269.85338360181 -269.87288167866s-35.194028713965 -83.705243916372 -29.383601812712 -89.476674663925 c5.7909288244031 -5.7714307475532 89.145207357477 29.676072965459 89.145207357477 29.676072965459s0.46795384439621 0.077992307399368 0.62393845919494 0.21447884534826l0.38996153699684 0.11698846109905l-0.11698846109905 0.17548269164858c13.51216725694 13.51216725694 253.1435317415 253.16302981835 269.17095091207 269.20994706577 c2.8077230663772 2.7882249895274 4.0555999847671 6.414867283598 4.0555999847671 10.528961498915C547.70097871206 271.56190258578 502.01698465288 314.28218896378 483.68879241403 295.97349480178zM533.23340568948 245.76594691344 c-14.272592254084 -14.097109562436 -211.98309151148 -211.76861266613 -259.441410564 -259.2854259492l-39.581096005179 39.620092158879L493.8862866065 285.77600060931c0.35096538329716 0.40945961384668 2.8077230663772 0.40945961384668 6.7268365131955 -1.2088807646902 c4.5430519060132 -1.8718153775848 9.1056018888762 -5.0305038272592 13.414676872691 -8.7741345824289L279.83639894893 41.660078449294c-1.0528961498915 -1.0918923035911 -1.5793442248372 -2.4372596062302 -1.5793442248372 -3.821623062569c0 -1.3648653794889 0.52644807494573 -2.7687269126776 1.5793442248372 -3.821623062569 c2.1252903766328 -2.0862942229331 5.5374538253551 -2.0862942229331 7.643246125138 0L521.65154804067 268.22773144446c6.8243268974447 -7.8382268936365 11.640351879356 -16.319890323318 11.640351879356 -21.681861457024C533.29189992003 246.03891998934 533.23340568948 245.76594691344 533.23340568948 245.76594691344z"/><glyph unicode="&#xE007;" glyph-name="door9" horiz-adv-x="512" d="M384 128v64H224v64h160v64l96 -96L384 128zM352 160v-128H192v-96L0 32V448h352v-160h-32V416H64l128 -64v-288h128v96H352z"/><glyph unicode="&#xE008;" glyph-name="history1" horiz-adv-x="512" d="M288 416c123.712 0 224 -100.288 224 -224S411.712 -32 288 -32v48c47.012 0 91.209 18.307 124.451 51.549S464 144.988 464 192 c0 47.011 -18.307 91.209 -51.549 124.451C379.209 349.693 335.012 368 288 368c-47.011 0 -91.209 -18.307 -124.451 -51.549 c-25.57 -25.569 -42.291 -57.623 -48.653 -92.451H208L96 96L-16 224h82.285C81.815 332.551 175.154 416 288 416zM384 224v-64H256V320h64 v-96H384z"/><glyph unicode="&#xE009;" glyph-name="keyboard9" horiz-adv-x="512" d="M256 235.4432c-19.7632 0 -35.84 16.0768 -35.84 35.84s16.0768 35.84 35.84 35.84c19.75808 0 35.84 -16.0768 35.84 -35.84S275.75808 235.4432 256 235.4432zM169.1904 235.4432c-19.7632 0 -35.84 16.0768 -35.84 35.84s16.0768 35.84 35.84 35.84s35.84 -16.0768 35.84 -35.84S188.9536 235.4432 169.1904 235.4432zM344.65792 235.4432c-19.75808 0 -35.84 16.0768 -35.84 35.84s16.08192 35.84 35.84 35.84s35.84 -16.0768 35.84 -35.84S364.42112 235.4432 344.65792 235.4432zM256.00512 149.27872c-19.7632 0 -35.84 16.08192 -35.84 35.84c0 19.7632 16.0768 35.84 35.84 35.84c19.75808 0 35.84 -16.08192 35.84 -35.84C291.84512 165.36064 275.7632 149.27872 256.00512 149.27872zM169.19552 149.27872c-19.7632 0 -35.84 16.08192 -35.84 35.84c0 19.7632 16.0768 35.84 35.84 35.84s35.84 -16.08192 35.84 -35.84C205.03552 165.36064 188.95872 149.27872 169.19552 149.27872zM344.66304 149.27872c-19.75808 0 -35.84 16.08192 -35.84 35.84c0 19.7632 16.08192 35.84 35.84 35.84s35.84 -16.08192 35.84 -35.84C380.50304 165.36064 364.42624 149.27872 344.66304 149.27872zM256.00512 63.39072c-19.7632 0 -35.84 16.08192 -35.84 35.84s16.0768 35.84 35.84 35.84c19.75808 0 35.84 -16.08192 35.84 -35.84S275.7632 63.39072 256.00512 63.39072zM169.19552 63.39072c-19.7632 0 -35.84 16.08192 -35.84 35.84s16.0768 35.84 35.84 35.84s35.84 -16.08192 35.84 -35.84S188.95872 63.39072 169.19552 63.39072zM344.66304 63.39072c-19.75808 0 -35.84 16.08192 -35.84 35.84s16.08192 35.84 35.84 35.84s35.84 -16.08192 35.84 -35.84S364.42624 63.39072 344.66304 63.39072z"/><glyph unicode="&#xE00A;" glyph-name="machine2" horiz-adv-x="523" d="M451.07933954677 250.70426266736L437.87784453801 282.07295264229c0 0 30.714670956143 69.301793064295 28.001703174528 71.966314992667L425.20925391494 393.7406443677 c-2.8098594881014 2.7371907082367 -72.135875479018 -28.897951459526 -72.135875479018 -28.897951459526L321.09911529545 377.75351279746c0 0 -28.243932440744 70.246487202536 -32.119600700194 70.246487202536H231.59540142877C227.59861853622 448 201.46208071155 377.60817523773 201.46208071155 377.60817523773L169.53626342433 364.6489094952 c0 0 -70.77939158821 30.084874863983 -73.492359369825 27.396130008989L55.44627903676 352.2952169182C52.636419548659 349.55802620996 84.949803661825 281.66116288972 84.949803661825 281.66116288972L71.748308653073 250.34091876804C71.748308653073 250.34091876804 0 222.70255949283 0 218.97222879311v-56.245635615272 c0 -3.9241141126934 71.917869139424 -29.527747551687 71.917869139424 -29.527747551687l13.201495008752 -31.271798268439c0 0 -30.714670956143 -69.253347211052 -28.02592610115 -71.917869139424l40.646070870985 -39.79826843923c2.7614136348583 -2.6887448549936 72.111652552396 28.946397312769 72.111652552396 28.946397312769 l31.998486067086 -12.959265742537c0 0 28.243932440744 -70.198041349293 32.143823626816 -70.198041349293h57.384113166485c3.9725599659365 0 30.133320717226 70.391824762265 30.133320717226 70.391824762265l32.022708993708 12.959265742537c0 0 70.634054028481 -30.084874863983 73.371244736718 -27.444575862232 l40.646070870985 39.749822585987c2.834082414723 2.7856365614799 -29.551970478308 70.634054028481 -29.551970478308 70.634054028481l13.177272082131 31.320244121682c0 0 71.772531579694 27.686805128448 71.772531579694 31.465581681412v56.197189762029 C522.97298575957 225.17329800823 451.07933954677 250.70426266736 451.07933954677 250.70426266736zM345.32204191702 192.01211146331c0 -45.22420400246 -37.618205043289 -82.043052467238 -83.835549037233 -82.043052467238c-46.168898140701 0 -83.835549037233 36.818848464777 -83.835549037233 82.043052467238 s37.666650896532 81.994606613994 83.835549037233 81.994606613994C307.72805980035 273.98249515068 345.32204191702 237.23631546577 345.32204191702 192.01211146331z"/><glyph unicode="&#xE00B;" glyph-name="map46" horiz-adv-x="512" d="M448 128h-64v64h64V128zM336 368c0 -11.938 -2.625 -23.281 -7.313 -33.438L256 192l-72.688 142.563 C178.625 344.719 176 356.062 176 368c0 44.188 35.813 80 80 80S336 412.187 336 368zM304 368c0 26.5 -21.5 48 -48 48s-48 -21.5 -48 -48 s21.5 -48 48 -48S304 341.5 304 368zM512 320v-320c0 -35.344 -28.656 -64 -64 -64H64c-35.344 0 -64 28.656 -64 64V320 c0 35.344 28.656 64 64 64h81.625C144.875 378.75 144 373.5 144 368c0 -5.406 1 -10.688 1.75 -16H128v-96h59.438l16.313 -32H128v-128h192V224 h-11.781L352 309.875V256h128v64c0 17.656 -14.344 32 -32 32h-81.719C367.063 357.312 368 362.562 368 368c0 5.5 -0.844 10.75 -1.625 16 H448C483.344 384 512 355.344 512 320zM96 64H32v-64c0 -17.656 14.375 -32 32 -32h32V64zM96 224H32v-128h64V224zM96 352H64 c-17.625 0 -32 -14.344 -32 -32v-64h64V352zM320 64H128v-96h192V64zM480 64H352v-96h96c17.656 0 32 14.344 32 32V64zM480 224H352v-128 h128V224z"/><glyph unicode="&#xE00C;" glyph-name="map49" horiz-adv-x="512" d="M208.938 116.906l11.875 -29.688c-11.5 -4.594 -22.969 -8.094 -34.156 -10.438l-6.531 31.313 C189.5 110.062 199.188 113.031 208.938 116.906zM113.719 78.562c11.719 -3.375 24.063 -5.188 36.688 -5.375l0.5 32 c-9.813 0.156 -19.344 1.531 -28.344 4.125L113.719 78.562zM365.688 134.406c9.219 -1.813 18.219 -4.969 26.75 -9.375l14.688 28.438 c-11.25 5.781 -23.094 9.938 -35.25 12.313L365.688 134.406zM298.938 160.656l9.563 -30.5c9.781 3.063 19.438 5 28.75 5.75 l-2.563 31.875C323 166.844 310.969 164.437 298.938 160.656zM247.563 136.594c-3.594 -2.25 -7.125 -4.313 -10.594 -6.25l15.563 -27.938 c3.906 2.188 7.906 4.5 11.906 7c5.5 3.406 10.875 6.438 16.156 9.125l-14.531 28.5C260.063 143.969 253.875 140.5 247.563 136.594zM336 336c0 -13.063 -3.125 -25.438 -8.688 -36.313L256 160c0 0 -71.875 140.844 -72.156 141.438C178.813 311.875 176 323.625 176 336 c0 44.188 35.813 80 80 80S336 380.187 336 336zM304 336c0 26.5 -21.5 48 -48 48s-48 -21.5 -48 -48s21.5 -48 48 -48S304 309.5 304 336zM416 256h-75.063l-16.344 -32h68.344l34.531 -103.625l-11.031 -12.188c11.75 -10.625 17.844 -20.406 17.875 -20.438l3.375 2.031 L467.594 0H44.375l32.063 96.094c1.125 -0.781 2 -1.531 3.25 -2.313l17 27.063c-3.813 2.406 -6.938 4.781 -9.688 7L119.063 224h68.375 c-6.781 13.25 -12.125 23.719 -16.344 32H96L0 -32h512L416 256z"/><glyph unicode="&#xE00D;" glyph-name="menu10" horiz-adv-x="512" d="M78 348c-20 0 -35 15 -35 35s15 36 35 36h353c20 0 36 -16 36 -36s-16 -35 -36 -35H78zM431 261c20 0 36 -16 36 -36s-16 -35 -36 -35H78c-20 0 -35 15 -35 35s15 36 35 36H431zM431 102c20 0 36 -15 36 -35s-16 -36 -36 -36H78c-20 0 -35 16 -35 36s15 35 35 35H431z"/><glyph unicode="&#xE00E;" glyph-name="menu25" horiz-adv-x="512" d="M462.8992 387.00032H127.9488c-18.00704 0 -32.65536 -14.64832 -32.65536 -32.65536s14.64832 -32.65536 32.65536 -32.65536h334.9504 c18.00704 0 32.65536 14.64832 32.65536 32.65536S480.90624 387.00032 462.8992 387.00032zM462.8992 272.78336H127.9488c-18.00704 0 -32.65536 -14.64832 -32.65536 -32.65536s14.64832 -32.65536 32.65536 -32.65536h334.9504 c18.00704 0 32.65536 14.64832 32.65536 32.65536S480.90624 272.78336 462.8992 272.78336zM462.8992 163.58912H127.9488c-18.00704 0 -32.65536 -14.64832 -32.65536 -32.65536s14.64832 -32.65536 32.65536 -32.65536h334.9504 c18.00704 0 32.65536 14.64832 32.65536 32.65536S480.90624 163.58912 462.8992 163.58912zM462.8992 52.06528H127.9488c-18.00704 0 -32.65536 -14.64832 -32.65536 -32.65536s14.64832 -32.65536 32.65536 -32.65536h334.9504 c18.00704 0 32.65536 14.64832 32.65536 32.65536S480.90624 52.06528 462.8992 52.06528zM49.1008 321.69472c18.00704 0 32.65024 14.64832 32.65024 32.65536s-14.64832 32.65536 -32.65024 32.65536s-32.65536 -14.64832 -32.65536 -32.65536 S31.09376 321.69472 49.1008 321.69472zM49.1008 207.47264c18.00704 0 32.65024 14.64832 32.65024 32.65536s-14.64832 32.65536 -32.65024 32.65536S16.44544 258.13504 16.44544 240.128 S31.09376 207.47264 49.1008 207.47264zM49.1008 98.2784c18.00704 0 32.65024 14.64832 32.65024 32.65536s-14.64832 32.65536 -32.65024 32.65536s-32.65536 -14.64832 -32.65536 -32.65536 S31.09376 98.2784 49.1008 98.2784zM49.1008 -13.24032c18.00704 0 32.65024 14.64832 32.65024 32.65536s-14.64832 32.65536 -32.65024 32.65536s-32.65536 -14.64832 -32.65536 -32.65536 S31.09376 -13.24032 49.1008 -13.24032z"/><glyph unicode="&#xE00F;" glyph-name="outcoming" horiz-adv-x="512" d="M68.312 338.592L292.128 338.592L292.128 368.832L38.08 368.832L38.08 15.168L292.128 15.168L292.128 45.424L68.312 45.424ZM342.712 323.216L318.208 298.784L407.688 209.32L93.208 209.32L93.208 174.712L407.664 174.712L318.216 85.264L342.704 60.784L473.92 192Z"/><glyph unicode="&#xE010;" glyph-name="people5" horiz-adv-x="396" d="M298.70545454545 156.78836363636c5.2751515151515 -2.6375757575758 7.9127272727273 -7.1227474747475 7.9127272727273 -13.452929292929v-51.035797979798V83.2c0 -3.9563636363636 -1.1869090909091 -7.3852121212121 -3.5607272727273 -10.286545454545 s-5.4070303030303 -4.352 -9.0996363636364 -4.352H99.700363636364c-3.4288484848485 0 -6.3301818181818 1.4506666666667 -8.704 4.352c-2.3738181818182 2.9013333333333 -3.5607272727273 6.3301818181818 -3.5607272727273 10.286545454545v9.0996363636364v51.035797979798 c0 6.3301818181818 2.6375757575758 10.814707070707 7.9127272727273 13.452929292929l54.597818181818 25.320727272727l21.364363636364 9.8909090909091c-10.022787878788 6.0664242424242 -17.671757575758 14.770424242424 -22.946909090909 26.112 c-5.0113939393939 10.022787878788 -7.5170909090909 20.70496969697 -7.5170909090909 32.046545454545c0 3.4288484848485 0.26375757575758 6.7258181818182 0.79127272727273 9.8909090909091c0.52751515151515 3.1650909090909 1.1869090909091 6.198303030303 1.9781818181818 9.0996363636364 c3.6926060606061 13.451636363636 10.352484848485 24.529454545455 19.979636363636 33.233454545455s20.770909090909 13.056 33.431272727273 13.056c12.924121212121 0 24.266343434343 -4.4838787878788 34.024727272727 -13.451636363636 s16.35296969697 -20.309333333333 19.781818181818 -34.024727272727c1.3187878787879 -6.5939393939394 1.9794747474747 -12.528484848485 1.9794747474747 -17.803636363636c0 -10.550303030303 -2.1113535353535 -20.70496969697 -6.3301818181818 -30.464 c-5.2751515151515 -11.869090909091 -12.924121212121 -20.836848484848 -22.946909090909 -26.903272727273l22.551272727273 -10.682181818182L298.70545454545 156.78836363636L298.70545454545 156.78836363636zM87.435636363636 173.40509090909 c-5.8026666666667 -2.6375757575758 -10.352484848485 -6.6611717171717 -13.649454545455 -12.066909090909c-3.2969696969697 -5.4070303030303 -4.9454545454545 -11.407515151515 -4.9454545454545 -18.002747474747v-51.035797979798H28.090181818182c-2.9013333333333 0 -5.2751515151515 1.1196767676768 -7.1214545454545 3.3616161616162 c-1.846303030303 2.2432323232323 -2.7694545454545 5.0773333333333 -2.7694545454545 8.5061818181818V152.43636363636c0 5.8039595959596 2.1100606060606 9.4952727272727 6.3301818181818 11.077818181818L85.853090909091 192 c-7.3852121212121 4.4838787878788 -13.319757575758 10.88 -17.803636363636 19.188363636364S61.323636363636 228.79418181818 61.323636363636 239.08072727273c0 7.1214545454545 1.1869090909091 13.913212121212 3.5607272727273 20.375272727273 c2.3738181818182 6.4620606060606 5.6048484848485 12.066909090909 9.6930909090909 16.814545454545c4.0882424242424 4.7476363636364 8.8358787878788 8.5061818181818 14.242909090909 11.275636363636c5.4070303030303 2.7694545454545 11.275636363636 4.1541818181818 17.605818181818 4.1541818181818 c4.2201212121212 0 8.1764848484848 -0.65939393939394 11.869090909091 -1.9781818181818c3.6926060606061 -1.3187878787879 7.2533333333333 -3.0332121212121 10.682181818182 -5.1432727272727c-4.4838787878788 -11.077818181818 -6.7258181818182 -22.551272727273 -6.7258181818182 -34.420363636364 c0 -9.2315151515152 1.3187878787879 -18.133333333333 3.9563636363636 -26.705454545455c2.6375757575758 -8.5721212121212 6.3301818181818 -16.28703030303 11.077818181818 -23.144727272727c-2.9013333333333 -3.1650909090909 -5.9345454545455 -5.6707878787879 -9.0996363636364 -7.5170909090909L87.435636363636 173.40509090909zM370.71127272727 163.51418181818c4.2188282828283 -2.1100606060606 6.3301818181818 -5.8026666666667 6.3301818181818 -11.077818181818v-48.267636363636c0 -3.4288484848485 -0.92444444444444 -6.2629494949495 -2.7694545454545 -8.5061818181818c-1.846303030303 -2.2419393939394 -4.2201212121212 -3.3616161616162 -7.1227474747475 -3.3616161616162 h-41.936808080808v51.035797979798c0 6.5939393939394 -1.6491313131313 12.594424242424 -4.9448080808081 18.002747474747c-3.2976161616162 5.4057373737374 -7.7155555555556 9.4293333333333 -13.253818181818 12.066909090909L267.84581818182 192 c-3.6926060606061 2.1100606060606 -7.2546262626263 5.1432727272727 -10.682181818182 9.0996363636364c4.4851717171717 6.857696969697 7.9786666666667 14.440727272727 10.484363636364 22.749090909091s3.7585454545455 17.078303030303 3.7585454545455 26.309818181818 c0 6.0664242424242 -0.52751515151515 11.869090909091 -1.5825454545455 17.408s-2.6375757575758 10.945939393939 -4.7476363636364 16.221090909091c3.4288484848485 2.3738181818182 7.1214545454545 4.2860606060606 11.077818181818 5.7367272727273s8.0446060606061 2.176 12.26602020202 2.176 c6.3301818181818 0 12.264727272727 -1.3847272727273 17.802343434343 -4.1541818181818c5.5389090909091 -2.7694545454545 10.353777777778 -6.528 14.44202020202 -11.275636363636c4.0869494949495 -4.7476363636364 7.3179797979798 -10.352484848485 9.691797979798 -16.814545454545 c2.3751111111111 -6.4620606060606 3.5620202020202 -13.253818181818 3.5620202020202 -20.375272727273c0 -10.022787878788 -2.2432323232323 -19.188363636364 -6.7258181818182 -27.496727272727c-4.4851717171717 -8.3083636363636 -10.154666666667 -14.704484848485 -17.012363636364 -19.188363636364 L370.71127272727 163.51418181818L370.71127272727 163.51418181818z"/><glyph unicode="&#xE011;" glyph-name="placeholder8" horiz-adv-x="512" d="M431.95136 165.63072l78.8352 -161.95008c3.2064 -6.58688 -0.16384 -11.97568 -7.48928 -11.97568H8.70272c-7.32544 0 -10.69568 5.3888 -7.48928 11.97568 l78.83584 161.95008c1.25376 2.576 4.62464 4.68416 7.48928 4.68416h67.59808c2.0832 0 4.89664 -1.30432 6.25984 -2.88 c4.58624 -5.29984 9.25824 -10.47808 13.91616 -15.6032c4.42368 -4.86528 8.87104 -9.79328 13.2832 -14.83712H108.37376c-2.86528 0 -6.23552 -2.10752 -7.48928 -4.68416 L48.6592 25.02336h414.6784l-52.22144 107.28768c-1.25376 2.57664 -4.62464 4.68416 -7.48992 4.68416H323.22176c4.41152 5.04384 8.86016 9.97184 13.28384 14.83712 c4.67264 5.13984 9.37024 10.30784 13.96736 15.6096c1.36192 1.5712 4.17024 2.87296 6.2496 2.87296l67.73952 0 C427.32672 170.31488 430.69696 168.20736 431.95136 165.63072zM371.90336 276.30592c0 -88.49216 -73.66912 -105.08864 -108.31616 -190.13056 c-2.81536 -6.91008 -12.54336 -6.87488 -15.36 0.03392C216.9728 162.88512 153.99424 183.91104 141.94432 252.2176 C130.08064 319.46304 176.63936 385.33376 244.62016 391.76C313.75616 398.29504 371.90336 344.09088 371.90336 276.30592zM317.16736 276.30592 c0 33.82848 -27.42336 61.25248 -61.25248 61.25248s-61.25248 -27.424 -61.25248 -61.25248c0 -33.82912 27.42336 -61.25248 61.25248 -61.25248 S317.16736 242.4768 317.16736 276.30592z"/><glyph unicode="&#xE012;" glyph-name="share4" horiz-adv-x="455" d="M369.77777777778 106.66666666667c-19.547022222222 0 -37.501155555556 -6.6446222222222 -51.888355555556 -17.703822222222L169.43217777778 178.03377777778C170.17742222222 182.59057777778 170.66666666667 187.2384 170.66666666667 192c0 4.7729777777778 -0.48924444444444 9.4094222222222 -1.2344888888889 13.971911111111 l148.45724444444 89.070933333333C332.27662222222 283.97226666667 350.23075555556 277.33333333333 369.77777777778 277.33333333333c47.121066666667 0 85.333333333333 38.212266666667 85.333333333333 85.333333333333S416.89884444444 448 369.77777777778 448S284.44444444444 409.78773333333 284.44444444444 362.66666666667 c0 -4.7616 0.48924444444444 -9.4094222222222 1.2458666666667 -13.966222222222L137.23306666667 259.62951111111C122.84586666667 270.68871111111 104.89173333333 277.33333333333 85.333333333333 277.33333333333C38.212266666667 277.33333333333 0 239.12106666667 0 192s38.212266666667 -85.333333333333 85.333333333333 -85.333333333333 c19.5584 0 37.512533333333 6.6389333333333 51.899733333333 17.709511111111l148.45724444444 -89.070933333333C284.93368888889 30.742755555556 284.44444444444 26.106311111111 284.44444444444 21.333333333333c0 -47.121066666667 38.212266666667 -85.333333333333 85.333333333333 -85.333333333333s85.333333333333 38.212266666667 85.333333333333 85.333333333333 S416.89884444444 106.66666666667 369.77777777778 106.66666666667z"/><glyph unicode="&#xE013;" glyph-name="todo" horiz-adv-x="512" d="M402.15630769231 387.56430769231H109.86338461538c-7.9950769230769 0 -14.493538461538 -6.4984615384615 -14.493538461538 -14.493538461538v-347.49046153846c0 -8.0344615384615 6.4984615384615 -14.493538461538 14.493538461538 -14.493538461538h292.29292307692 c7.9950769230769 0 14.493538461538 6.4590769230769 14.493538461538 14.493538461538V373.07076923077C416.64984615385 381.08553846154 410.15138461538 387.56430769231 402.15630769231 387.56430769231zM387.66276923077 40.073846153846H124.35692307692V358.55753846154h263.30584615385V40.073846153846zM218.23015384615 295.64061538462H165.17907692308v-53.031384615385h53.031384615385V295.64061538462zM211.77107692308 278.03569230769L188.21907692308 254.48369230769c-0.61046153846154 -0.63015384615385 -1.6541538461538 -0.63015384615385 -2.2646153846154 0L171.59876923077 268.89846153846 c-0.61046153846154 0.63015384615385 -0.61046153846154 1.6541538461538 0 2.304l3.4461538461538 3.3870769230769c0.61046153846154 0.64984615384615 1.6344615384615 0.64984615384615 2.2843076923077 0l9.7673846153846 -9.8264615384615l18.963692307692 18.963692307692 c0.64984615384615 0.63015384615385 1.6541538461538 0.63015384615385 2.304 0l3.4067692307692 -3.4264615384615C212.42092307692 279.68984615385 212.42092307692 278.66584615385 211.77107692308 278.03569230769zM229.29723076923 283.70707692308l121.32430769231 0l0 -29.164307692308l-118.15384615385 0ZM218.23015384615 226.48123076923H165.17907692308v-53.011692307692h53.031384615385V226.48123076923zM211.77107692308 208.896l-23.552 -23.552c-0.61046153846154 -0.63015384615385 -1.6541538461538 -0.63015384615385 -2.2646153846154 0l-14.355692307692 14.414769230769 c-0.61046153846154 0.63015384615385 -0.61046153846154 1.6541538461538 0 2.2843076923077l3.4461538461538 3.4067692307692c0.61046153846154 0.63015384615385 1.6344615384615 0.63015384615385 2.2843076923077 0l9.7673846153846 -9.8264615384615l18.963692307692 18.963692307692 c0.64984615384615 0.63015384615385 1.6541538461538 0.63015384615385 2.304 0l3.4067692307692 -3.4067692307692C212.42092307692 210.55015384615 212.42092307692 209.52615384615 211.77107692308 208.896zM229.29723076923 214.56738461538l121.32430769231 0l0 -29.164307692308l-118.15384615385 0ZM165.17907692308 155.80553846154l53.031384615385 0l0 -53.031384615385l-39.384615384615 0ZM229.29723076923 143.85230769231l121.32430769231 0l0 -29.144615384615l-118.15384615385 0Z"/><glyph unicode="&#xE014;" glyph-name="user13" horiz-adv-x="512" d="M448 -32c0 -17.696 -14.304 -32 -32 -32h-320c-17.664 0 -32 14.304 -32 32 0 64 61.856 123.712 125.088 147.328 -36.512 22.56 -61.088 62.624 -61.088 108.672v32c0 70.688 57.312 128 128 128s128 -57.312 128 -128v-32c0 -46.048 -24.576 -86.112 -61.056 -108.672 63.2 -23.616 125.056 -83.328 125.056 -147.328z"/><glyph unicode="&#xE015;" glyph-name="x10" horiz-adv-x="512" d="M327.672 411.616l-149.6 -84.168L19.888 390.672v-343.864l158.888 -43.696l147.232 40.968l166.112 -71.688v376.8L327.672 411.616 zM485.272 -17.216l-158.792 68.528l-147.704 -41.12L26.72 52.008V380.584l151.84 -60.704L328.24 404.096l157.032 -59.624V-17.216zM97.704 205.968c-1.272 1.4 -3.432 1.512 -4.832 0.248c-1.4 -1.264 -1.528 -3.416 -0.256 -4.832 c4.944 -5.504 10.416 -10.448 16.296 -14.72c0.6 -0.456 1.304 -0.672 2.016 -0.672c1.048 0 2.104 0.504 2.768 1.416 c1.12 1.52 0.768 3.672 -0.752 4.776C107.44 196.184 102.304 200.824 97.704 205.968zM258.832 232.136c-6.128 2.168 -11.632 2.888 -18.688 1.888c-1.456 -0.264 -2.88 -0.592 -4.256 -0.976 c-1.824 -0.512 -2.864 -2.4 -2.384 -4.216c0.512 -1.816 2.384 -2.88 4.232 -2.376c1.168 0.328 2.384 0.6 3.488 0.816 c5.424 0.752 10.216 0.224 15.328 -1.584c0.384 -0.136 0.768 -0.2 1.144 -0.2c1.424 0 2.728 0.88 3.232 2.28 C261.544 229.544 260.608 231.496 258.832 232.136zM216.112 222.256c-5.464 -4.536 -10.352 -9.92 -15.304 -15.488c-1.272 -1.408 -1.136 -3.576 0.272 -4.824 c0.648 -0.584 1.464 -0.856 2.272 -0.856c0.944 0 1.888 0.384 2.568 1.144c4.768 5.36 9.472 10.528 14.56 14.784 c1.472 1.2 1.656 3.352 0.456 4.808C219.72 223.264 217.544 223.456 216.112 222.256zM150.288 177.648c-6.376 0.352 -12.952 1.888 -19.544 4.56c-1.744 0.704 -3.752 -0.144 -4.456 -1.888 c-0.712 -1.752 0.12 -3.744 1.888 -4.448c7.296 -2.952 14.616 -4.664 21.728 -5.056l0.128 -0.008c1.864 0 3.376 1.424 3.472 3.232 C153.624 175.928 152.168 177.544 150.288 177.648zM186.384 191.632c-5.672 -5.128 -11 -8.584 -16.744 -10.856c-1.744 -0.68 -2.616 -2.68 -1.904 -4.44 c0.52 -1.336 1.816 -2.16 3.168 -2.16c0.424 0 0.848 0.08 1.264 0.248c6.448 2.528 12.592 6.504 18.8 12.112 c1.4 1.272 1.504 3.432 0.256 4.84C189.944 192.784 187.768 192.888 186.384 191.632zM295.096 209.016c-4.616 2.56 -8.96 5.856 -13.616 9.352l-3.432 2.584c-1.496 1.112 -3.64 0.824 -4.792 -0.704 c-1.128 -1.504 -0.8 -3.656 0.704 -4.784l3.4 -2.544c4.616 -3.496 9.384 -7.104 14.44 -9.888c0.512 -0.288 1.088 -0.432 1.64 -0.432 c1.2 0 2.36 0.64 2.992 1.768C297.344 206.024 296.76 208.104 295.096 209.016zM377.16 249.432c6.56 -0.336 10.472 -3.112 13.52 -9.568c0.592 -1.24 1.816 -1.968 3.088 -1.968 c0.504 0 0.992 0.104 1.472 0.328c1.704 0.816 2.424 2.848 1.624 4.552c-2.592 5.496 -7.4 12.872 -19.36 13.496 c-2.08 0.104 -3.496 -1.36 -3.584 -3.232C373.824 251.144 375.264 249.528 377.16 249.432zM347.192 221.744c1.088 0 2.16 0.528 2.824 1.488l2.592 3.792c3.136 4.6 6.336 9.344 9.656 13.216 c1.216 1.432 1.024 3.6 -0.408 4.832c-1.432 1.216 -3.584 1.048 -4.824 -0.4c-3.528 -4.136 -6.864 -9.048 -10.096 -13.8l-2.552 -3.76 c-1.088 -1.552 -0.688 -3.68 0.856 -4.76C345.84 221.952 346.528 221.744 347.192 221.744zM313.48 204.672c-1.88 -0.192 -3.256 -1.864 -3.048 -3.76c0.168 -1.752 1.64 -3.072 3.392 -3.072 c0.12 0 0.232 0.008 0.344 0.016c5.584 0.576 11.192 2.504 17.032 5.8c1.432 0.72 2.856 1.616 4.272 2.68 c1.504 1.144 1.792 3.296 0.624 4.8c-1.128 1.504 -3.272 1.792 -4.784 0.648c-1.032 -0.784 -2.08 -1.456 -3.32 -2.096 C322.84 206.792 318.096 205.152 313.48 204.672zM81.504 231.864c-0.664 1.768 -2.64 2.656 -4.4 1.984c-1.768 -0.648 -2.664 -2.632 -2 -4.384 c1.224 -3.24 2.712 -6.52 4.464 -9.744c0.616 -1.136 1.792 -1.776 2.992 -1.776c0.552 0 1.128 0.136 1.64 0.424 c1.664 0.896 2.28 2.976 1.376 4.632C83.984 225.936 82.608 228.92 81.504 231.864zM370.352 201.432c0.344 0 0.688 0.056 1.048 0.168c8.6 2.76 19.6 4.424 31.832 4.96 c-0.152 -2.368 -0.344 -4.728 -0.496 -7.104c-0.464 -8.608 -0.92 -16.744 -3.32 -24.544c-0.552 -1.808 0.456 -3.72 2.248 -4.28 c0.344 -0.112 0.688 -0.16 1.008 -0.16c1.472 0 2.832 0.936 3.264 2.408c2.664 8.608 3.168 17.544 3.64 26.2 c0.136 2.552 0.344 5.12 0.528 7.664c9.936 0.08 19.832 -0.544 28.832 -1.896c0.192 -0.032 0.344 -0.04 0.512 -0.04 c1.664 0 3.136 1.208 3.376 2.904c0.288 1.872 -1.008 3.608 -2.872 3.888c-9.12 1.376 -19.152 2.04 -29.176 1.984 c0.728 5.376 2.056 11.576 5.168 17.472c0.88 1.68 0.232 3.736 -1.448 4.624c-1.64 0.864 -3.744 0.24 -4.616 -1.44 c-2.568 -4.92 -4.024 -9.896 -4.976 -14.568c-0.36 0.872 -0.728 1.688 -1.088 2.648c-0.632 1.784 -2.576 2.696 -4.368 2.048 c-1.8 -0.632 -2.712 -2.592 -2.064 -4.368c0.912 -2.512 1.888 -4.696 2.92 -6.752c-11.792 -0.688 -22.456 -2.4 -31.016 -5.144 c-1.792 -0.576 -2.784 -2.504 -2.184 -4.304C367.56 202.36 368.92 201.432 370.352 201.432zM256 192"/></font>
</defs>
</svg>
