<?xml version="1.0" encoding="utf-8"?>
<!-- Generator: Adobe Illustrator 16.0.0, SVG Export Plug-In . SVG Version: 6.00 Build 0)  -->
<!DOCTYPE svg PUBLIC "-//W3C//DTD SVG 1.1//EN" "http://www.w3.org/Graphics/SVG/1.1/DTD/svg11.dtd">
<svg version="1.1" id="Layer_1" xmlns="http://www.w3.org/2000/svg" xmlns:xlink="http://www.w3.org/1999/xlink" x="0px" y="0px"
	 width="440px" height="290px" viewBox="0 0 440 290" enable-background="new 0 0 440 290" xml:space="preserve">
<symbol  id="Cloud" viewBox="-25.414 -15.884 50.828 31.768">
	<g>
		<path fill="#F2F2F2" d="M6.354,12.707c5.218,0,9.468-4.213,9.53-9.412c-0.025-0.193-0.043-0.385-0.05-0.583l-0.081-2.333
			l2.208-0.769c2.557-0.891,4.275-3.289,4.275-5.963c0-3.505-2.848-6.354-6.354-6.354h-31.768c-3.502,0-6.354,2.848-6.354,6.354
			c0,3.468,2.798,6.297,6.254,6.354c0.149-0.021,0.304-0.041,0.459-0.05l2.414-0.158l0.794,2.281
			c0.894,2.562,3.289,4.281,5.963,4.281c0.31,0,0.652-0.038,1.111-0.118l2.224-0.4l1.107,1.97
			C-0.211,10.827,2.953,12.707,6.354,12.707 M6.354,15.884c-4.759,0-8.857-2.649-11.035-6.521C-5.224,9.458-5.78,9.53-6.354,9.53
			c-4.163,0-7.667-2.687-8.963-6.41c-0.189,0.013-0.372,0.056-0.567,0.056c-5.262,0-9.53-4.269-9.53-9.53s4.269-9.53,9.53-9.53
			h31.768c5.262,0,9.53,4.269,9.53,9.53c0,4.163-2.687,7.668-6.41,8.965c0.006,0.192,0.056,0.373,0.056,0.565
			C19.061,10.194,13.371,15.884,6.354,15.884L6.354,15.884z"/>
	</g>
	<text transform="matrix(1 0 0 -1 -8.333 -7.3428)" fill="#F2F2F2" font-family="'RegencieLight'" font-size="13.0195">AG</text>
</symbol>
<use xlink:href="#Cloud"  width="50.828" height="31.768" x="-25.414" y="-15.884" transform="matrix(8.2794 0 0 -8.2794 219.7051 141.6855)" overflow="visible"/>
</svg>
