<?xml version="1.0" encoding="utf-8"?>
<!-- Generator: Adobe Illustrator 15.0.0, SVG Export Plug-In . SVG Version: 6.00 Build 0)  -->
<!DOCTYPE svg PUBLIC "-//W3C//DTD SVG 1.1//EN" "http://www.w3.org/Graphics/SVG/1.1/DTD/svg11.dtd">
<svg version="1.1" id="Layer_1" xmlns="http://www.w3.org/2000/svg" xmlns:xlink="http://www.w3.org/1999/xlink" x="0px" y="0px"
	 width="64px" height="64px" viewBox="0 0 64 64" enable-background="new 0 0 64 64" xml:space="preserve">
<g>
	<path fill="#231F20" d="M40.959,4.548l-18.7,10.521L2.486,7.166v42.983l19.861,5.462l18.404-5.121l20.764,8.961v-47.1L40.959,4.548
		z M60.659,58.152l-19.849-8.566l-18.463,5.14L3.34,49.499V8.427l18.98,7.588L41.03,5.488l19.629,7.453V58.152z"/>
	<path fill="#231F20" d="M12.213,30.254c-0.159-0.175-0.429-0.189-0.604-0.031c-0.175,0.158-0.191,0.427-0.032,0.604
		c0.618,0.688,1.302,1.306,2.037,1.84c0.075,0.057,0.163,0.084,0.252,0.084c0.131,0,0.263-0.063,0.346-0.177
		c0.14-0.19,0.096-0.459-0.094-0.597C13.43,31.477,12.788,30.897,12.213,30.254z"/>
	<path fill="#231F20" d="M32.354,26.983c-0.766-0.271-1.454-0.361-2.336-0.236c-0.182,0.033-0.36,0.074-0.532,0.122
		c-0.228,0.064-0.358,0.3-0.298,0.527c0.064,0.227,0.298,0.36,0.529,0.297c0.146-0.041,0.298-0.075,0.436-0.102
		c0.678-0.094,1.277-0.028,1.916,0.198c0.048,0.017,0.096,0.025,0.143,0.025c0.178,0,0.341-0.11,0.404-0.285
		C32.693,27.307,32.576,27.063,32.354,26.983z"/>
	<path fill="#231F20" d="M27.014,28.218c-0.683,0.567-1.294,1.24-1.913,1.936c-0.159,0.176-0.142,0.447,0.034,0.603
		c0.081,0.073,0.183,0.107,0.284,0.107c0.118,0,0.236-0.048,0.321-0.143c0.596-0.67,1.184-1.316,1.82-1.848
		c0.184-0.15,0.207-0.419,0.057-0.601C27.465,28.092,27.193,28.068,27.014,28.218z"/>
	<path fill="#231F20" d="M18.786,33.794c-0.797-0.044-1.619-0.236-2.443-0.57c-0.218-0.088-0.469,0.018-0.557,0.236
		c-0.089,0.219,0.015,0.468,0.236,0.556c0.912,0.369,1.827,0.583,2.716,0.632l0.016,0.001c0.233,0,0.422-0.178,0.434-0.404
		C19.203,34.009,19.021,33.807,18.786,33.794z"/>
	<path fill="#231F20" d="M23.298,32.046c-0.709,0.641-1.375,1.073-2.093,1.357c-0.218,0.085-0.327,0.335-0.238,0.555
		c0.065,0.167,0.227,0.27,0.396,0.27c0.053,0,0.106-0.01,0.158-0.031c0.806-0.316,1.574-0.813,2.35-1.514
		c0.175-0.159,0.188-0.429,0.032-0.605C23.743,31.902,23.471,31.889,23.298,32.046z"/>
	<path fill="#231F20" d="M36.887,29.873c-0.577-0.32-1.12-0.732-1.702-1.169l-0.429-0.323c-0.187-0.139-0.455-0.103-0.599,0.088
		c-0.141,0.188-0.1,0.457,0.088,0.598l0.425,0.318c0.577,0.437,1.173,0.888,1.805,1.236c0.064,0.036,0.136,0.054,0.205,0.054
		c0.15,0,0.295-0.08,0.374-0.221C37.168,30.247,37.095,29.987,36.887,29.873z"/>
	<path fill="#231F20" d="M47.145,24.821c0.82,0.042,1.309,0.389,1.69,1.196c0.074,0.155,0.227,0.246,0.386,0.246
		c0.063,0,0.124-0.013,0.184-0.041c0.213-0.102,0.303-0.356,0.203-0.569c-0.324-0.687-0.925-1.609-2.42-1.687
		c-0.26-0.013-0.437,0.17-0.448,0.404C46.728,24.607,46.908,24.809,47.145,24.821z"/>
	<path fill="#231F20" d="M43.399,28.282c0.136,0,0.27-0.066,0.353-0.186l0.324-0.474c0.392-0.575,0.792-1.168,1.207-1.652
		c0.152-0.179,0.128-0.45-0.051-0.604c-0.179-0.152-0.448-0.131-0.603,0.05c-0.441,0.517-0.858,1.131-1.262,1.725l-0.319,0.47
		c-0.136,0.194-0.086,0.46,0.107,0.595C43.23,28.256,43.316,28.282,43.399,28.282z"/>
	<path fill="#231F20" d="M39.185,30.416c-0.235,0.024-0.407,0.233-0.381,0.47c0.021,0.219,0.205,0.384,0.424,0.384
		c0.015,0,0.029-0.001,0.043-0.002c0.698-0.072,1.399-0.313,2.129-0.725c0.179-0.09,0.357-0.202,0.534-0.335
		c0.188-0.143,0.224-0.412,0.078-0.6c-0.141-0.188-0.409-0.224-0.598-0.081c-0.129,0.098-0.26,0.182-0.415,0.262
		C40.355,30.151,39.762,30.356,39.185,30.416z"/>
	<path fill="#231F20" d="M10.188,27.017c-0.083-0.221-0.33-0.332-0.55-0.248c-0.221,0.081-0.333,0.329-0.25,0.548
		c0.153,0.405,0.339,0.815,0.558,1.218c0.077,0.142,0.224,0.222,0.374,0.222c0.069,0,0.141-0.017,0.205-0.053
		c0.208-0.112,0.285-0.372,0.172-0.579C10.498,27.758,10.326,27.385,10.188,27.017z"/>
	<path fill="#231F20" d="M46.294,30.821c0.043,0,0.086-0.007,0.131-0.021c1.075-0.345,2.45-0.553,3.979-0.62
		c-0.019,0.296-0.043,0.591-0.062,0.888c-0.058,1.076-0.115,2.093-0.415,3.068c-0.069,0.226,0.057,0.465,0.281,0.535
		c0.043,0.014,0.086,0.02,0.126,0.02c0.184,0,0.354-0.117,0.408-0.301c0.333-1.076,0.396-2.193,0.455-3.275
		c0.017-0.319,0.043-0.64,0.066-0.958c1.242-0.01,2.479,0.068,3.604,0.237c0.024,0.004,0.043,0.005,0.064,0.005
		c0.208,0,0.392-0.151,0.422-0.363c0.036-0.234-0.126-0.451-0.359-0.486c-1.14-0.172-2.394-0.255-3.647-0.248
		c0.091-0.672,0.257-1.447,0.646-2.184c0.11-0.21,0.029-0.467-0.181-0.578c-0.205-0.108-0.468-0.03-0.577,0.18
		c-0.321,0.615-0.503,1.237-0.622,1.821c-0.045-0.109-0.091-0.211-0.136-0.331c-0.079-0.223-0.322-0.337-0.546-0.256
		c-0.225,0.079-0.339,0.324-0.258,0.546c0.114,0.314,0.236,0.587,0.365,0.844c-1.474,0.086-2.807,0.3-3.877,0.643
		c-0.224,0.072-0.348,0.313-0.273,0.538C45.945,30.705,46.115,30.821,46.294,30.821z"/>
</g>
<path fill="#231F20" d="M32,32"/>
</svg>
